<svg id="svg" version="1.1" width="400" height="400" viewBox="0 0 400 400" xmlns="http://www.w3.org/2000/svg" xmlns:xlink="http://www.w3.org/1999/xlink" ><g id="svgg"><path id="path0" d="" stroke="none" fill="#005555" fill-rule="evenodd"></path><path id="path1" d="" stroke="none" fill="#339933" fill-rule="evenodd"></path><path id="path2" d="" stroke="none" fill="#14b13b" fill-rule="evenodd"></path><path id="path3" d="M189.667 0.178 C 89.409 5.512,8.665 83.869,0.591 183.667 C -9.400 307.166,93.703 409.795,217.250 399.329 C 301.637 392.180,372.696 332.015,393.815 249.833 C 396.861 237.981,398.650 226.711,399.703 212.750 C 399.994 208.892,399.994 191.108,399.703 187.250 C 398.592 172.521,396.530 160.038,393.163 147.667 C 368.422 56.754,283.477 -4.812,189.667 0.178 M180.917 105.999 C 241.762 107.632,298.163 121.709,336.854 144.920 C 352.207 154.130,348.273 176.540,330.770 179.577 C 325.751 180.447,322.428 179.581,315.500 175.593 C 303.385 168.621,287.784 162.084,271.333 157.085 C 214.819 139.913,140.926 138.433,88.167 153.415 C 83.582 154.717,82.952 154.833,80.488 154.833 C 65.637 154.833,56.816 138.284,65.075 125.917 C 68.049 121.463,71.075 119.568,78.617 117.435 C 108.272 109.052,144.354 105.018,180.917 105.999 M179.583 175.006 C 227.805 177.135,273.917 190.199,309.750 211.883 C 320.327 218.283,321.498 231.069,312.165 238.251 C 306.696 242.459,300.459 242.406,293.167 238.087 C 239.130 206.087,161.250 196.922,97.698 215.084 C 91.392 216.886,88.473 216.847,84.356 214.906 C 72.148 209.149,72.625 191.658,85.129 186.541 C 86.193 186.106,91.829 184.468,95.833 183.430 C 116.072 178.186,137.053 175.360,160.167 174.767 C 163.508 174.681,175.591 174.830,179.583 175.006 M180.169 240.171 C 220.092 241.913,254.489 251.726,285.734 270.289 C 287.965 271.614,288.658 272.125,289.852 273.325 C 297.409 280.925,292.351 293.745,281.583 294.281 C 278.569 294.431,277.031 293.932,272.784 291.425 C 236.133 269.790,193.276 261.380,143.250 266.007 C 129.229 267.304,117.398 269.223,99.083 273.171 C 87.814 275.601,79.433 263.364,85.989 254.051 C 87.991 251.208,90.275 249.802,94.466 248.836 C 123.098 242.235,154.562 239.053,180.169 240.171 " stroke="none" fill="#2ebd59" fill-rule="evenodd"></path><path id="path4" d="" stroke="none" fill="#00ff00" fill-rule="evenodd"></path></g></svg>